<svg width="210" height="210" viewBox="0 0 210 210" fill="none" xmlns="http://www.w3.org/2000/svg">
<g clip-path="url(#clip0_4:533)">
<path d="M2.5007 65.8692V144.07C2.5007 148.382 3.7511 152.613 6.16256 156.362C8.55175 160.089 12.0127 163.192 16.1434 165.348L91.3685 204.439C95.5214 206.594 100.233 207.723 105.011 207.723C109.811 207.723 114.501 206.594 118.654 204.439L193.879 165.348C198.032 163.192 201.47 160.089 203.86 156.362C206.249 152.634 207.521 148.382 207.521 144.07V65.8692C207.521 61.557 206.249 57.3255 203.86 53.598C201.47 49.8705 198.009 46.7672 193.879 44.6112L118.654 5.52086C114.501 3.36483 109.789 2.23645 105.011 2.23645C100.21 2.23645 95.5214 3.36483 91.3685 5.52086L16.1434 44.6112C11.9904 46.7672 8.55175 49.8705 6.16256 53.598C3.77343 57.3055 2.5007 61.557 2.5007 65.8692Z" fill="#FFED00"/>
<path d="M105.011 210C99.7865 210 94.6285 208.75 90.118 206.413L14.8931 167.323C10.3605 164.965 6.58691 161.58 3.97448 157.51C1.38437 153.399 0 148.765 0 144.07V65.8488C0 61.1539 1.38437 56.5196 3.99681 52.4294C6.60923 48.3592 10.3828 44.9538 14.8931 42.6164L90.118 3.52604C99.1612 -1.16884 110.861 -1.16884 119.904 3.52604L195.129 42.6164C199.662 44.9739 203.435 48.3592 206.025 52.4294C208.638 56.4995 210.022 61.1339 210.022 65.8488V144.07C210.022 148.765 208.638 153.419 206.025 157.49C203.413 161.56 199.64 164.965 195.129 167.303L119.904 206.393C115.394 208.75 110.236 210 105.011 210ZM5.00159 65.8694V144.07C5.00159 147.979 6.14036 151.848 8.32854 155.213C10.4944 158.598 13.6428 161.419 17.3939 163.373L92.619 202.464C100.144 206.373 109.879 206.373 117.404 202.464L192.628 163.373C196.402 161.419 199.528 158.598 201.694 155.213C203.86 151.828 205.021 147.979 205.021 144.07V65.8694C205.021 61.96 203.882 58.1113 201.694 54.7265C199.528 51.3412 196.38 48.5205 192.628 46.5658L117.404 7.45524C109.879 3.54619 100.144 3.54619 92.619 7.45524L17.3939 46.5456C13.6428 48.5 10.4944 51.3211 8.32854 54.7064C6.16268 58.0912 5.00159 61.96 5.00159 65.8694Z" fill="#1D1D1B"/>
<path d="M29.0046 109.776L27.2407 112.778V122.873H21.4799V90.0083H27.2407V104.335L34.8547 90.0083H40.4815L32.5102 104.657L40.4815 122.873H34.5868L29.0046 109.776Z" fill="#1D1D1B"/>
<path d="M54.0351 90.0083H48.2967V122.873H54.0351V90.0083Z" fill="#1D1D1B"/>
<path d="M70.9376 109.776L69.1735 112.778V122.873H63.4353V90.0083H69.1735V104.335L76.7875 90.0083H82.4146L74.4431 104.657L82.4146 122.873H76.5198L70.9376 109.776Z" fill="#1D1D1B"/>
<path d="M106.887 110.622V114.974C106.887 117.634 106.172 119.669 104.721 121.099C103.269 122.53 101.148 123.236 98.3345 123.215C95.5214 123.215 93.3775 122.51 91.9488 121.099C90.4973 119.689 89.7827 117.654 89.7827 114.974V97.9073C89.7827 95.2474 90.4973 93.2123 91.9488 91.7819C93.4003 90.3511 95.5214 89.6461 98.3345 89.6662C101.148 89.6662 103.291 90.3711 104.721 91.7819C106.172 93.1923 106.887 95.2274 106.887 97.9073V101.091H101.461V97.5646C101.461 96.3962 101.193 95.55 100.657 95.046C100.054 94.5826 99.2951 94.3205 98.4911 94.3205C97.687 94.3205 96.928 94.5826 96.3249 95.046C95.7891 95.5295 95.5214 96.3757 95.5214 97.5646V115.337C95.5214 116.526 95.7891 117.352 96.3249 117.815C96.928 118.259 97.687 118.52 98.4911 118.52C99.2724 118.52 100.054 118.279 100.657 117.815C101.193 117.352 101.461 116.526 101.461 115.337V110.622H106.887Z" fill="#1D1D1B"/>
<path d="M121.333 122.873H115.595V90.0083H121.333V104.093H127.853V90.0083H133.703V122.873H127.853V108.788H121.333V122.873Z" fill="#1D1D1B"/>
<path d="M148.574 112.455H154.111L151.365 95.852L148.574 112.455ZM161.681 122.873H155.876L154.893 116.908H147.837L146.855 122.873H141.585L147.435 90.0083H155.831L161.681 122.873Z" fill="#1D1D1B"/>
<path d="M177.065 109.776L175.301 112.778V122.873H169.563V90.0083H175.279V104.335L182.893 90.0083H188.52L180.526 104.657L188.52 122.873H182.648L177.065 109.776Z" fill="#1D1D1B"/>
<path d="M73.863 61.0737V62.7261H75.9841V72.5188H77.8371V62.7261H79.9588V61.0737H73.863Z" fill="#1D1D1B"/>
<path d="M85.6525 67.1588C85.8758 67.0581 86.0768 66.9369 86.255 66.7761C86.4338 66.6147 86.5677 66.4133 86.6793 66.2115C86.7909 65.99 86.8358 65.7685 86.8358 65.5266V63.008C86.8358 62.766 86.7909 62.524 86.6793 62.3026C86.5677 62.0811 86.4338 61.8792 86.255 61.7184C86.0768 61.537 85.853 61.4158 85.6076 61.3151C85.3621 61.2144 85.094 61.1743 84.8263 61.1743H81.8567V72.6394H83.7096V68.4484L84.9379 72.6394H86.8358L85.295 67.2996C85.3844 67.2395 85.5182 67.1989 85.6525 67.1588ZM84.8035 65.6678H83.6874V62.8467H84.8707L84.9601 62.9273C84.9601 62.9474 84.9601 62.9674 84.9601 62.9875V65.5065C84.9601 65.5466 84.9379 65.5872 84.9157 65.6072C84.8929 65.6473 84.8485 65.6678 84.8035 65.6678Z" fill="#1D1D1B"/>
<path d="M93.423 62.8266V61.1743H88.6671V72.6193H93.423V70.967H90.5201V67.3197H92.3958V65.6473H90.5201V62.8266H93.423Z" fill="#1D1D1B"/>
<path d="M100.501 62.8266V61.1743H95.7448V72.6193H100.501V70.967H97.5761V67.3197H99.4518V65.6473H97.5761V62.8266H100.501Z" fill="#1D1D1B"/>
<path d="M102.801 61.1743V62.8266H104.922V72.6193H106.775V62.8266H108.919V61.1743H102.801Z" fill="#1D1D1B"/>
<path d="M120.931 62.8266V61.1743H116.175V72.6193H118.029V67.3197H119.904V65.6473H118.029V62.8266H120.931Z" fill="#1D1D1B"/>
<path d="M134.864 62.3026C134.775 62.0811 134.618 61.8792 134.44 61.7184C134.261 61.5571 134.038 61.4158 133.793 61.3151C133.547 61.2144 133.279 61.1743 133.011 61.1743H132.073C131.805 61.1743 131.537 61.2144 131.292 61.3151C131.046 61.4158 130.823 61.537 130.644 61.7184C130.465 61.8998 130.309 62.0811 130.22 62.3026C130.108 62.524 130.063 62.766 130.063 63.008V70.8257C130.063 71.0677 130.108 71.3097 130.22 71.5512C130.376 71.8738 130.622 72.1559 130.957 72.3573C131.292 72.5587 131.671 72.6594 132.073 72.6594H133.011C133.547 72.6594 134.06 72.4781 134.44 72.1358C134.618 71.9745 134.775 71.7731 134.864 71.5512C134.976 71.3297 135.02 71.0878 135.02 70.8257V63.008C135.02 62.746 134.954 62.524 134.864 62.3026ZM133.167 62.9875V70.8057L133.122 70.9064L133.011 70.967H132.073L131.961 70.9269L131.917 70.8057V62.9875L131.961 62.8667L132.073 62.8266H133.078L133.167 62.9073C133.145 62.9474 133.167 62.9674 133.167 62.9875Z" fill="#1D1D1B"/>
<path d="M127.541 62.3026C127.452 62.0811 127.295 61.8792 127.117 61.7184C126.938 61.5571 126.715 61.4158 126.469 61.3151C126.223 61.2144 125.956 61.1743 125.687 61.1743H124.75C124.482 61.1743 124.214 61.2144 123.968 61.3151C123.722 61.4158 123.499 61.537 123.321 61.7184C123.142 61.8998 122.985 62.0811 122.897 62.3026C122.785 62.524 122.74 62.766 122.74 63.008V70.8257C122.74 71.0677 122.785 71.3097 122.897 71.5512C123.053 71.8738 123.298 72.1559 123.633 72.3573C123.968 72.5587 124.348 72.6594 124.75 72.6594H125.687C126.223 72.6594 126.737 72.4781 127.117 72.1358C127.295 71.9745 127.452 71.7731 127.541 71.5512C127.653 71.3297 127.697 71.0878 127.697 70.8257V63.008C127.719 62.746 127.653 62.524 127.541 62.3026ZM125.844 62.9875V70.8057L125.799 70.9064L125.687 70.967H124.75L124.638 70.9269L124.594 70.8057V62.9875L124.638 62.8667L124.75 62.8266H125.755L125.844 62.9073C125.844 62.9474 125.844 62.9674 125.844 62.9875Z" fill="#1D1D1B"/>
<path d="M142.166 62.2826C142.054 62.0611 141.92 61.8592 141.742 61.6984C141.563 61.517 141.339 61.3958 141.094 61.2951C140.849 61.1944 140.58 61.1543 140.313 61.1543H137.343V72.6193H140.313C140.715 72.6193 141.094 72.5186 141.429 72.3172C141.764 72.1158 142.01 71.8337 142.166 71.5111C142.277 71.2896 142.322 71.0276 142.322 70.8057V62.988C142.322 62.746 142.255 62.504 142.166 62.2826ZM140.469 62.988V70.8057C140.469 70.8262 140.469 70.8663 140.424 70.9269L140.313 70.967H139.196V62.8467H140.379L140.469 62.9274C140.447 62.9474 140.469 62.9675 140.469 62.988Z" fill="#1D1D1B"/>
<path d="M71.384 66.6751C71.183 66.2318 70.7816 65.8891 70.2901 65.6877C70.0447 65.587 69.7765 65.5464 69.5089 65.5464H68.571L68.4366 65.5063L68.37 65.3855V62.887L68.4144 62.7658L68.5488 62.7257H69.4861L69.6205 62.7658L69.6871 62.887V65.1837H71.5184V62.8665C71.5184 62.383 71.2952 61.9196 70.9154 61.5769C70.5356 61.2347 70.022 61.0533 69.4861 61.0533H68.5488C68.2806 61.0533 68.0124 61.0934 67.767 61.1941C67.2756 61.3755 66.8741 61.7382 66.6731 62.1816C66.5615 62.4031 66.5165 62.6451 66.5165 62.887V65.3855C66.5165 65.627 66.5615 65.8891 66.6731 66.1105C66.7847 66.3325 66.9407 66.5339 67.1417 66.6952C67.3205 66.8565 67.5438 66.9973 67.7892 67.078C68.0352 67.1787 68.3028 67.2188 68.571 67.2188H69.5089L69.6427 67.2593L69.7099 67.3801L69.6871 70.7654C69.6871 70.7854 69.6649 70.8055 69.5977 70.846H68.5488L68.4144 70.8055L68.3478 70.6847V68.4076H66.4943V70.7048C66.4943 70.9467 66.5387 71.1882 66.6509 71.4302C66.7625 71.6517 66.9185 71.8536 67.1195 72.0144C67.2983 72.1757 67.5215 72.317 67.767 72.3976C68.0124 72.4983 68.2806 72.5384 68.5488 72.5384H69.4861C69.7543 72.5384 70.022 72.4983 70.2679 72.3976C70.5134 72.2965 70.7366 72.1757 70.9154 72.0144C71.1164 71.8536 71.2724 71.6517 71.384 71.4302C71.4957 71.2088 71.5406 70.9668 71.5406 70.7048V67.3801C71.5406 67.1386 71.4957 66.8966 71.384 66.6751Z" fill="#1D1D1B"/>
<path d="M119.279 141.652C119.19 141.431 119.034 141.229 118.855 141.068C118.677 140.906 118.453 140.766 118.207 140.665C117.962 140.564 117.694 140.524 117.426 140.524H116.488C116.22 140.524 115.952 140.564 115.707 140.665C115.461 140.766 115.238 140.886 115.059 141.068C114.881 141.249 114.724 141.431 114.635 141.652C114.523 141.874 114.479 142.115 114.479 142.357V150.176C114.479 150.417 114.523 150.659 114.635 150.901C114.791 151.223 115.037 151.505 115.372 151.707C115.707 151.909 116.086 152.009 116.488 152.009H117.426C117.962 152.009 118.476 151.828 118.855 151.485C119.034 151.324 119.19 151.122 119.279 150.901C119.391 150.679 119.436 150.438 119.436 150.176V142.357C119.436 142.095 119.368 141.874 119.279 141.652ZM117.582 142.337V150.156L117.538 150.256L117.426 150.316H116.488L116.377 150.276L116.332 150.156V142.337L116.377 142.216L116.488 142.176H117.493L117.582 142.257C117.582 142.297 117.582 142.317 117.582 142.337Z" fill="#1D1D1B"/>
<path d="M80.9189 142.176V140.524H76.1629V151.989H80.9189V150.316H78.0159V146.67H79.8916V145.017H78.0159V142.176H80.9189Z" fill="#1D1D1B"/>
<path d="M88.0864 146.145C87.8853 145.702 87.4833 145.36 86.9925 145.158C86.7465 145.057 86.4788 145.017 86.2106 145.017H85.2728L85.1389 144.977L85.0723 144.856V142.357L85.1167 142.237L85.2506 142.196H86.1884L86.3223 142.237L86.3894 142.357V144.654H88.2202V142.337C88.2202 141.854 87.997 141.39 87.6177 141.048C87.2379 140.705 86.7243 140.524 86.1884 140.524H85.2506C84.9829 140.524 84.7147 140.564 84.4693 140.665C83.9779 140.846 83.5758 141.209 83.3748 141.652C83.2632 141.874 83.2188 142.115 83.2188 142.357V144.856C83.2188 145.098 83.2632 145.36 83.3748 145.581C83.487 145.803 83.643 146.005 83.844 146.166C84.0228 146.327 84.2461 146.468 84.4915 146.548C84.7369 146.649 85.0051 146.69 85.2728 146.69H86.2106L86.345 146.73L86.4116 146.851L86.3894 150.236C86.3894 150.256 86.3672 150.276 86.3 150.316H85.2506L85.1167 150.276L85.0496 150.156V147.858H83.1966V150.156C83.1966 150.397 83.241 150.639 83.3526 150.881C83.4642 151.102 83.6208 151.304 83.8218 151.465C84.0001 151.626 84.2233 151.767 84.4693 151.848C84.7147 151.949 84.9829 151.989 85.2506 151.989H86.1884C86.4566 151.989 86.7243 151.949 86.9702 151.848C87.2157 151.747 87.4389 151.626 87.6177 151.465C87.8187 151.304 87.9747 151.102 88.0864 150.881C88.198 150.659 88.2429 150.417 88.2429 150.156V146.831C88.2429 146.609 88.1758 146.367 88.0864 146.145Z" fill="#1D1D1B"/>
<path d="M90.5645 140.524V142.176H92.6862V151.989H94.5392V142.176H96.6604V140.524H90.5645Z" fill="#1D1D1B"/>
<path d="M99.831 150.438H98.1563V151.969H99.831V150.438Z" fill="#1D1D1B"/>
<path d="M108.986 146.73C109.008 146.71 109.03 146.69 109.052 146.69C109.075 146.69 109.119 146.69 109.187 146.69H110.125C110.392 146.69 110.66 146.649 110.906 146.548C111.397 146.367 111.799 146.005 112 145.561C112.111 145.339 112.156 145.098 112.156 144.856V142.337C112.156 142.095 112.111 141.854 112 141.632C111.888 141.41 111.732 141.209 111.531 141.048C111.33 140.886 111.129 140.766 110.884 140.665C110.638 140.564 110.37 140.524 110.102 140.524H109.164C108.896 140.524 108.628 140.564 108.383 140.665C108.137 140.746 107.914 140.886 107.735 141.048C107.534 141.209 107.378 141.41 107.266 141.632C107.154 141.854 107.11 142.095 107.11 142.337V144.07H108.963V142.337L109.008 142.237L109.142 142.196H110.08L110.213 142.237L110.258 142.337V144.917L110.169 144.997L109.142 145.017C108.874 145.017 108.606 145.057 108.36 145.158C108.115 145.239 107.891 145.38 107.713 145.541C107.512 145.702 107.355 145.903 107.244 146.125C107.132 146.347 107.088 146.609 107.088 146.851V152.009H112.089V150.316H108.941V146.77C108.963 146.75 108.986 146.73 108.986 146.73Z" fill="#1D1D1B"/>
<path d="M121.735 140.524V142.176H123.209V151.989H125.062V140.524H121.735Z" fill="#1D1D1B"/>
<path d="M127.384 140.524V142.176H130.354L127.273 151.989H129.215L132.788 140.524H127.384Z" fill="#1D1D1B"/>
</g>
<defs>
<clipPath id="clip0_4:533">
<rect width="210" height="210" fill="white"/>
</clipPath>
</defs>
</svg>
